<svg width="77" height="81" viewBox="0 0 77 81" fill="none" xmlns="http://www.w3.org/2000/svg">
<g clip-path="url(#clip0_59_16144)">
<path d="M9.56629 78.1276H21.1452V78.6821C21.1452 79.9037 20.1845 80.9 19.0074 80.9H11.7042C10.527 80.9 9.56629 79.9007 9.56629 78.6821V78.1276ZM56.5048 78.6821C56.5048 79.9037 57.4655 80.9 58.6426 80.9H65.9458C67.12 80.9 68.0837 79.9007 68.0837 78.6821V78.1276H56.5048V78.6821ZM76.7272 9.03639V68.5709C76.7272 73.0453 73.0652 76.7073 68.5908 76.7073H9.05925C4.58482 76.7043 0.922852 73.0423 0.922852 68.5679V9.03639C0.922852 4.56197 4.58482 0.899994 9.05925 0.899994H68.5937C73.0652 0.899994 76.7272 4.56197 76.7272 9.03639ZM74.1237 18.4626H72.5522V10.3707C72.5522 7.45003 70.1771 5.07197 67.2535 5.07197H10.3936C7.47289 5.07197 5.09483 7.44707 5.09483 10.3707V67.2306C5.09483 70.1513 7.46992 72.5294 10.3936 72.5294H67.2535C70.1741 72.5294 72.5522 70.1543 72.5522 67.2306V59.1387H74.1237V53.5909H72.5522V24.0104H74.1237V18.4626ZM69.8213 11.5301V18.4626H68.0214V24.0104H69.8213V53.5938H68.0214V59.1417H69.8213V66.0742C69.8213 68.1291 68.1489 69.8014 66.0941 69.8014H11.5529C9.49809 69.8014 7.82574 68.1291 7.82574 66.0742V11.5301C7.82574 9.47523 9.49809 7.80289 11.5529 7.80289H66.0941C68.1489 7.80585 69.8213 9.4782 69.8213 11.5301ZM56.5048 39.4204C56.5048 29.6561 48.5908 21.7421 38.8265 21.7421C29.0622 21.7421 21.1452 29.6591 21.1452 39.4204C21.1452 49.1847 29.0622 57.1016 38.8265 57.1016C48.5878 57.1016 56.5048 49.1847 56.5048 39.4204ZM38.8235 25.9645C31.3899 25.9645 25.3647 31.9897 25.3647 39.4233C25.3647 46.857 31.3899 52.8822 38.8235 52.8822C46.2572 52.8822 52.2824 46.857 52.2824 39.4233C52.2824 31.9897 46.2572 25.9645 38.8235 25.9645ZM38.8235 48.2595C33.9429 48.2595 29.9873 44.304 29.9873 39.4233C29.9873 34.5427 33.9429 30.5872 38.8235 30.5872C43.7042 30.5872 47.6597 34.5427 47.6597 39.4233C47.6627 44.301 43.7042 48.2595 38.8235 48.2595ZM39.2713 56.47H39.0103H38.6397H38.3787V56.2091V53.9615V53.7006H38.6397H39.0103H39.2713V53.9615V56.2091V56.47ZM46.7909 54.1098L46.6604 53.8844L45.8836 52.5382L45.7531 52.3129L45.9784 52.1824L46.2987 51.9986L46.524 51.8681L46.6545 52.0935L47.4314 53.4397L47.5618 53.665L47.3365 53.7955L47.0163 53.9793L46.7909 54.1098ZM30.8591 54.1098L30.6337 53.9793L30.3135 53.7955L30.0882 53.665L30.2186 53.4397L30.9955 52.0935L31.126 51.8681L31.3513 51.9986L31.6716 52.1824L31.8969 52.3129L31.7664 52.5382L30.9896 53.8844L30.8591 54.1098ZM53.0681 48.1587L52.8428 48.0282L51.4966 47.2514L51.2713 47.1209L51.4017 46.8955L51.5856 46.5753L51.716 46.35L51.9414 46.4804L53.2876 47.2573L53.5129 47.3878L53.3825 47.6131L53.1986 47.9334L53.0681 48.1587ZM24.5819 48.1587L24.4514 47.9334L24.2676 47.6131L24.1371 47.3878L24.3624 47.2573L25.7086 46.4804L25.934 46.35L26.0644 46.5753L26.2483 46.8955L26.3787 47.1209L26.1534 47.2514L24.8072 48.0282L24.5819 48.1587ZM55.8732 39.8681H55.6123H53.3676H53.1067V39.6072V39.2365V38.9756H53.3676H55.6123H55.8732V39.2365V39.6072V39.8681ZM24.5433 39.8681H24.2824H22.0348H21.7739V39.6072V39.2365V38.9756H22.0348H24.2824H24.5433V39.2365V39.6072V39.8681ZM51.716 32.4938L51.5856 32.2684L51.4017 31.9482L51.2713 31.7228L51.4966 31.5924L52.8428 30.8155L53.0681 30.685L53.1986 30.9104L53.3854 31.2306L53.5159 31.456L53.2905 31.5864L51.9444 32.3633L51.716 32.4938ZM25.934 32.4938L25.7086 32.3633L24.3624 31.5864L24.1371 31.456L24.2676 31.2306L24.4514 30.9104L24.5819 30.685L24.8072 30.8155L26.1534 31.5924L26.3787 31.7228L26.2483 31.9482L26.0644 32.2684L25.934 32.4938ZM46.524 26.9756L46.2987 26.8451L45.9784 26.6613L45.7531 26.5308L45.8836 26.3055L46.6604 24.9593L46.7909 24.7339L47.0163 24.8644L47.3365 25.0483L47.5618 25.1787L47.4314 25.4041L46.6545 26.7503L46.524 26.9756ZM31.126 26.9756L30.9955 26.7503L30.2186 25.4041L30.0882 25.1787L30.3135 25.0483L30.6337 24.8644L30.8591 24.7339L30.9896 24.9593L31.7664 26.3055L31.8969 26.5308L31.6716 26.6613L31.3513 26.8451L31.126 26.9756ZM39.2713 25.1402H39.0103H38.6397H38.3787V24.8792V22.6316V22.3707H38.6397H39.0103H39.2713V22.6316V24.8792V25.1402Z" fill="#F45369"/>
</g>
<defs>
<clipPath id="clip0_59_16144">
<rect width="75.8043" height="80" fill="white" transform="translate(0.922852 0.899994)"/>
</clipPath>
</defs>
</svg>
