<svg width="250" height="50" viewBox="0 0 1447 319" fill="none" xmlns="http://www.w3.org/2000/svg">
<path d="M310.15 318.64H8.47998L159.32 167.8L310.15 318.64Z" fill="#B61D29"/>
<path d="M150.84 159.32L0 310.18V8.47998L150.84 159.32Z" fill="#B61D29"/>
<path d="M310.15 0L159.32 150.86L8.47998 0H310.15Z" fill="#B61D29"/>
<path d="M413.36 174.84L401.95 187.32V220.84H377.35V97.8203H401.95V153.98L452.4 97.8203H483.78L429.41 157.19L486.1 220.83H454.01L413.36 174.84Z" fill="black"/>
<path d="M581.12 129.91V220.83H557.94V209.96C550.63 217.98 540.47 222.97 528.35 222.97C503.03 222.97 483.96 202.47 483.96 175.37C483.96 148.27 503.04 127.77 528.35 127.77C540.47 127.77 550.63 132.76 557.94 140.78V129.91H581.12ZM557.94 175.37C557.94 161.11 547.24 150.23 532.8 150.23C518.54 150.23 507.84 161.1 507.84 175.37C507.84 189.64 518.54 200.51 532.8 200.51C547.24 200.51 557.94 189.64 557.94 175.37Z" fill="black"/>
<path d="M697.49 175.37C697.49 202.47 678.59 222.97 653.28 222.97C641.16 222.97 631 218.16 623.69 209.96V254.71H600.51V129.91H623.69V140.78C631 132.58 641.16 127.77 653.28 127.77C678.6 127.77 697.49 148.28 697.49 175.37ZM673.6 175.37C673.6 161.11 663.08 150.23 648.64 150.23C634.38 150.23 623.68 161.1 623.68 175.37C623.68 189.64 634.38 200.51 648.64 200.51C663.09 200.51 673.6 189.64 673.6 175.37Z" fill="black"/>
<path d="M708.53 102.1C708.53 93.9002 714.95 87.6602 723.15 87.6602C731.35 87.6602 737.77 93.9002 737.77 102.1C737.77 110.3 731.35 116.54 723.15 116.54C714.95 116.54 708.53 110.3 708.53 102.1ZM711.56 129.91H734.74V220.83H711.56V129.91Z" fill="black"/>
<path d="M786.79 151.13V188.92C786.79 196.59 791.07 200.51 799.27 200.51C803.91 200.51 807.83 199.08 811.21 197.48V219.05C806.22 221.72 801.05 222.97 794.27 222.97C773.41 222.97 763.61 210.85 763.61 192.66V151.12H749.17V129.91H763.61V106.91H786.79V129.91H811.21V151.12H786.79V151.13Z" fill="black"/>
<path d="M920.49 129.91V220.83H897.31V209.96C890 217.98 879.84 222.97 867.72 222.97C842.4 222.97 823.33 202.47 823.33 175.37C823.33 148.27 842.4 127.77 867.72 127.77C879.84 127.77 890 132.76 897.31 140.78V129.91H920.49ZM897.32 175.37C897.32 161.11 886.62 150.23 872.18 150.23C857.92 150.23 847.22 161.1 847.22 175.37C847.22 189.64 857.92 200.51 872.18 200.51C886.62 200.51 897.32 189.64 897.32 175.37Z" fill="black"/>
<path d="M939.82 92.48H963V220.84H939.82V92.48Z" fill="black"/>
<path d="M1123.62 187.5C1123.62 206.93 1108.82 220.84 1089.04 220.84H1027.18V97.8203H1084.94C1103.3 97.8203 1117.56 111.01 1117.56 129.2C1117.56 140.79 1111.5 150.95 1103.3 155.59C1115.24 159.86 1123.62 172.88 1123.62 187.5ZM1051.06 119.93V147.03H1078.87C1086.18 147.03 1092.24 141.15 1092.24 133.48C1092.24 125.81 1086.54 119.93 1078.87 119.93H1051.06ZM1098.31 183.22C1098.31 174.66 1091.71 167.89 1082.98 167.89H1051.07V198.73H1082.98C1091.71 198.73 1098.31 191.95 1098.31 183.22Z" fill="black"/>
<path d="M1233.26 129.91V220.83H1210.08V209.96C1202.77 217.98 1192.61 222.97 1180.49 222.97C1155.17 222.97 1136.1 202.47 1136.1 175.37C1136.1 148.27 1155.17 127.77 1180.49 127.77C1192.61 127.77 1202.77 132.76 1210.08 140.78V129.91H1233.26ZM1210.08 175.37C1210.08 161.11 1199.38 150.23 1184.94 150.23C1170.68 150.23 1159.98 161.1 1159.98 175.37C1159.98 189.64 1170.68 200.51 1184.94 200.51C1199.39 200.51 1210.08 189.64 1210.08 175.37Z" fill="black"/>
<path d="M1340.19 163.07V220.83H1317.01V170.56C1317.01 158.26 1309.17 150.24 1297.04 150.24C1284.38 150.24 1275.83 158.44 1275.83 170.92V220.84H1252.65V129.92H1275.83V140.08C1282.96 132.06 1292.94 127.78 1304.71 127.78C1326.11 127.77 1340.19 141.68 1340.19 163.07Z" fill="black"/>
<path d="M1389.93 189.46L1381.91 198.2V220.84H1358.73V92.48H1381.91V167.18L1415.43 129.92H1445.38L1406.34 171.99L1446.63 220.84H1416.31L1389.93 189.46Z" fill="black"/>
</svg>
