<svg xmlns="http://www.w3.org/2000/svg" width="1em" height="1em" viewBox="0 0 24 24"><path fill="#f45369" d="m18.44 13.791l-5.499-9.585a2.098 2.098 0 0 0-1.274-.98a2.137 2.137 0 0 0-1.607.205l-1.196.696a.236.236 0 0 0-.078.06l-.069.087a.627.627 0 0 0-.147.275a25.426 25.426 0 0 1-1.588 3.783a6.106 6.106 0 0 1-1.754 1.892l-1.794 1.588a2.136 2.136 0 0 0-.686 1.244a2.27 2.27 0 0 0 .059.98c-.246.136-.46.324-.627.55a2.107 2.107 0 0 0-.363.744a2.166 2.166 0 0 0 0 .833a2.137 2.137 0 0 0 .806 1.397c.22.168.473.29.743.358c.175.048.357.07.539.068c.097.01.196.01.294 0c.272-.033.533-.127.764-.274c.216.243.489.428.794.54c.237.093.49.14.745.136c.139.003.277-.013.412-.049l1.597 2.853a2.166 2.166 0 0 0 1.843 1.058a2.137 2.137 0 0 0 2.039-1.578a2.186 2.186 0 0 0-.206-1.607l-1.196-2.078c.322-.072.65-.111.98-.118c1.395.059 2.782.236 4.146.53h.343l.157-.07l.147-.088l1.049-.607c.482-.279.835-.737.98-1.274a2.137 2.137 0 0 0-.353-1.569M6.551 16.948a.647.647 0 0 1-.431 0a.598.598 0 0 1-.324-.275l-1.49-2.607l-.097-.167a.657.657 0 0 1 .137-.823l1.107-.98l.412.725l2.127 3.725zm10.674-1.96a.696.696 0 0 1-.304.401l-.549.314l-6.136-10.694l.559-.323a.598.598 0 0 1 .48-.059a.628.628 0 0 1 .392.294l5.499 9.576a.657.657 0 0 1 .059.549zm-.255-5.823a.716.716 0 0 1-.637-.362a.735.735 0 0 1 .265-.98l2.45-1.422a.725.725 0 0 1 .98.265a.735.735 0 0 1-.265.98l-2.45 1.421a.725.725 0 0 1-.343.098m4.518 3.47h-2.832a.735.735 0 1 1 0-1.47h2.832a.735.735 0 0 1 0 1.47m-6.831-6.969a.677.677 0 0 1-.363-.098a.726.726 0 0 1-.274-.98l1.411-2.47a.736.736 0 0 1 1.274.735l-1.411 2.46a.725.725 0 0 1-.637.353"/></svg>