<svg xmlns="http://www.w3.org/2000/svg" width="54" height="41" viewBox="0 0 54 41" fill="none">
    <path d="M38.6234 3.35469V1.95469C38.6234 1.18469 37.9934 0.554688 37.2234 0.554688H6.42344C5.65344 0.554688 5.02344 1.18469 5.02344 1.95469V3.35469H38.6234Z" fill="#F45369"/>
    <path d="M38.6203 4.75391H5.02031L0.820312 11.7539C0.820312 14.0639 2.71031 15.9539 5.02031 15.9539C7.33031 15.9539 9.22031 14.0639 9.22031 11.7539C9.22031 14.0639 11.1103 15.9539 13.4203 15.9539C15.7303 15.9539 17.6203 14.0639 17.6203 11.7539C17.6203 14.0639 19.5103 15.9539 21.8203 15.9539C24.1303 15.9539 26.0203 14.0639 26.0203 11.7539C26.0203 14.0639 27.9103 15.9539 30.2203 15.9539C32.5303 15.9539 34.4203 14.0639 34.4203 11.7539C34.4203 14.0639 36.3103 15.9539 38.6203 15.9539C40.9303 15.9539 42.8203 14.0639 42.8203 11.7539L38.6203 4.75391Z" fill="#F45369"/>
    <path d="M36.3164 17.0547C36.2562 17.1149 37.016 16.7716 37.0159 16.7481C36.3859 16.3981 34.9059 15.9545 34.4859 15.3945C33.4359 16.5845 31.9659 17.2845 30.2859 17.2845C28.6059 17.2845 27.1359 16.5145 26.0859 15.3945C25.0359 16.5845 23.5659 17.2845 21.8859 17.2845C20.2059 17.2845 18.7359 16.5145 17.6859 15.3945C16.6359 16.5845 15.1659 17.2845 13.4859 17.2845C11.8059 17.2845 10.3359 16.5145 9.28591 15.3945C8.23591 16.5845 6.76591 17.2845 5.08594 17.2845V40.3845H21.6859V19.4545H30.1359C32.8164 19.0547 35.0869 17.6149 36.3164 17.0547ZM18.8159 29.2545H7.81591V19.4545H18.8159V29.2545Z" fill="#F45369"/>
    <path fill-rule="evenodd" clip-rule="evenodd" d="M45.5395 36.5035C46.3605 36.7115 47.3198 36.8326 48.3449 36.8326C51.3702 36.8326 53.8225 35.788 53.8225 34.5011V33.0312C53.4959 33.399 53.0108 33.7189 52.4064 33.9766C50.5177 34.7806 47.7484 34.9188 45.5583 34.3895C45.5599 34.7993 45.5552 35.2105 45.5552 35.6203H45.5536C45.5536 35.8066 45.519 35.9867 45.4531 36.159C45.4939 36.2708 45.5238 36.3856 45.5395 36.5035Z" fill="#F45369"/>
    <path d="M24.8306 31.8846C24.8149 31.8023 24.8196 31.7169 24.8447 31.6347C24.8824 31.7589 24.9672 31.8706 25.0897 31.9405L32.0665 35.922C32.2094 36.0182 32.3977 36.0446 32.5704 35.9763L33.6506 35.5432V35.6208H33.6521C33.6521 35.8071 33.6867 35.9856 33.7526 36.1595C33.7008 36.293 33.6678 36.4327 33.6568 36.5739L32.5704 37.0086C32.3977 37.0784 32.2094 37.052 32.0665 36.9542L25.0897 32.9727C24.8871 32.8578 24.7898 32.6312 24.8306 32.4155V31.8846ZM38.8738 26.1133L31.6112 21.8664L34.3633 20.8528L42.111 25.3853L42.1078 26.3446C41.0905 26.1304 39.968 26.0528 38.8738 26.1133ZM24.8306 29.9225V30.455C24.7898 30.6707 24.8871 30.8974 25.0897 31.0122L32.0665 34.9937C32.2094 35.09 32.3977 35.1164 32.5704 35.0481L33.6506 34.615V34.0965C33.6506 33.9103 33.6851 33.7302 33.7526 33.5564L33.7479 33.5424L32.5704 34.0143C32.3977 34.0841 32.2094 34.0577 32.0665 33.9599L25.0897 29.9784C24.9672 29.9086 24.8824 29.7968 24.8447 29.6726C24.8181 29.7565 24.8149 29.8418 24.8306 29.9225ZM24.8306 27.9605V28.4929C24.7898 28.7087 24.8871 28.9353 25.0897 29.0502L32.0665 33.0317C32.2094 33.1279 32.3977 33.1543 32.5704 33.086L33.6506 32.6529V31.6192L32.5704 32.0522C32.3977 32.1221 32.2094 32.0957 32.0665 31.9979L25.0897 28.0164C24.9672 27.9465 24.8824 27.8363 24.8447 27.7106C24.8181 27.7944 24.8149 27.8798 24.8306 27.9605ZM44.5052 27.2729L47.6246 26.0233V26.0217C47.7361 25.9767 47.8319 25.896 47.8947 25.7843C47.9119 25.7517 47.9261 25.7191 47.937 25.6849C47.9559 25.747 47.9637 25.8137 47.959 25.8805V26.5278C47.9653 26.6256 47.9465 26.7265 47.8947 26.8181C47.8334 26.9298 47.7361 27.0121 47.6246 27.0555V27.0571L45.5083 27.9046C45.4204 27.9264 45.3325 27.9496 45.2462 27.9729C45.0672 27.7184 44.816 27.484 44.5052 27.2729ZM24.8306 26V26.5324C24.7898 26.7482 24.8871 26.9733 25.0897 27.0897L32.0665 31.0712C32.2094 31.1674 32.3977 31.1938 32.5704 31.1255L33.6757 30.6831C33.66 30.5962 33.6521 30.5077 33.6521 30.4177H33.6506V30.3277V29.6323L32.5704 30.0654C32.3977 30.1352 32.2094 30.1088 32.0665 30.011L25.0897 26.0295C24.9703 25.9628 24.8887 25.8572 24.8479 25.7377C24.8196 25.8231 24.8133 25.9131 24.8306 26ZM43.1817 25.8137L43.1786 26.638C43.2837 26.6737 43.3874 26.7125 43.4878 26.7513L47.6246 25.0935V25.092C47.7361 25.0469 47.8319 24.9662 47.8947 24.8545C47.9449 24.7613 47.9653 24.662 47.959 24.5642V23.9169C47.9653 23.8455 47.9559 23.7756 47.9323 23.7089C47.9229 23.7384 47.9104 23.7663 47.8947 23.7943C47.8334 23.906 47.7361 23.9883 47.6246 24.0318V24.0333L43.1817 25.8137ZM32.0665 29.1775C32.2094 29.2737 32.3977 29.3001 32.5704 29.2318L33.6537 28.7972C33.7055 27.9884 34.4167 27.2992 35.5408 26.8212C36.0243 26.6147 36.5659 26.4533 37.1405 26.3353L31.9095 23.2758L31.0649 22.7822L31.046 22.7713L30.3176 22.3445L25.1697 24.2413C25.0567 24.2832 24.9562 24.3624 24.8918 24.4742C24.7443 24.7272 24.8322 25.0516 25.0897 25.1975L32.0665 29.1775ZM35.657 20.3762L42.6573 24.4711C42.8756 24.5983 43.031 24.7908 43.1158 25.0081L47.6246 23.2029V23.2013C47.7361 23.1563 47.8319 23.0756 47.8947 22.9638C48.036 22.7061 47.9402 22.3848 47.6796 22.2451L40.9586 18.6191C40.8268 18.5492 40.6666 18.5322 40.5159 18.588L35.657 20.3762Z" fill="#F45369"/>
    <path fill-rule="evenodd" clip-rule="evenodd" d="M45.5411 33.8997C46.3621 34.1092 47.3214 34.2287 48.3465 34.2287C51.3718 34.2287 53.8241 33.1841 53.8241 31.8973V30.3838V30.3807C53.8241 29.0939 51.3718 28.0508 48.3481 28.0508C47.2931 28.0508 46.3072 28.1781 45.4704 28.3985C45.5254 28.5537 45.5536 28.7136 45.5552 28.8781C46.3354 28.6763 47.301 28.5568 48.3465 28.5568C50.9354 28.5568 53.0344 29.2864 53.0344 30.1867C53.0344 31.087 50.9354 31.8165 48.3465 31.8165C47.301 31.8165 46.3354 31.697 45.5552 31.4952V31.4968C45.563 32.0013 45.5552 32.5104 45.5552 33.0164H45.5536C45.5536 33.2027 45.5191 33.3828 45.4531 33.5551C45.4955 33.6684 45.5254 33.7817 45.5411 33.8997Z" fill="#F45369"/>
    <path fill-rule="evenodd" clip-rule="evenodd" d="M34.125 36.7539V38.2239C34.125 39.5107 36.5773 40.5538 39.601 40.5538C42.6247 40.5538 45.0769 39.5107 45.0769 38.2239V36.7539C44.7504 37.1218 44.2653 37.4416 43.6608 37.6992C41.3813 38.6694 37.8207 38.6694 35.5411 37.6992C34.9382 37.4416 34.4531 37.1218 34.125 36.7539Z" fill="#F45369"/>
    <path fill-rule="evenodd" clip-rule="evenodd" d="M34.125 34.1523V35.6222C34.125 36.909 36.5773 37.9522 39.601 37.9522C42.6247 37.9522 45.0769 36.909 45.0769 35.6222V34.1523C44.7504 34.5201 44.2653 34.8399 43.6608 35.0976C41.3813 36.0677 37.8207 36.0677 35.5411 35.0976C34.9382 34.8399 34.4531 34.5201 34.125 34.1523Z" fill="#F45369"/>
    <path fill-rule="evenodd" clip-rule="evenodd" d="M34.125 31.5508V33.0192C34.125 34.306 36.5773 35.3491 39.601 35.3491C42.6247 35.3491 45.0769 34.306 45.0769 33.0192V31.5508C44.7504 31.9187 44.2653 32.2384 43.6608 32.4961C41.3813 33.4663 37.8207 33.4663 35.5411 32.4961C34.9382 32.2384 34.4531 31.9171 34.125 31.5508Z" fill="#F45369"/>
    <path fill-rule="evenodd" clip-rule="evenodd" d="M34.125 28.9034V30.4168C34.125 31.7036 36.5773 32.7467 39.601 32.7467C42.6247 32.7467 45.0769 31.7036 45.0769 30.4168V28.9034V28.9002C45.0769 27.6134 42.6247 26.5703 39.601 26.5703C36.5773 26.5703 34.125 27.6134 34.125 28.9002V28.9034ZM39.6025 27.0764C42.1914 27.0764 44.2904 27.8059 44.2904 28.7062C44.2904 29.6065 42.1914 30.3361 39.6025 30.3361C37.0137 30.3361 34.9147 29.6065 34.9147 28.7062C34.9147 27.8059 37.0137 27.0764 39.6025 27.0764Z" fill="#F45369"/>
    <path d="M22.8203 20.5547H29.8203L24.3203 23.0547V34.5547H22.8203V20.5547Z" fill="#F45369"/>
    <path d="M22.8203 27.5547V33.0547L30.8203 38.0547V40.5547H22.8203V27.5547Z" fill="#F45369"/>
</svg>
